<?xml version="1.0" standalone="no"?>
<!DOCTYPE svg PUBLIC "-//W3C//DTD SVG 20010904//EN"
 "http://www.w3.org/TR/2001/REC-SVG-20010904/DTD/svg10.dtd">
<svg version="1.0" xmlns="http://www.w3.org/2000/svg"
 width="1119.000000pt" height="1280.000000pt" viewBox="0 0 1119.000000 1280.000000"
 preserveAspectRatio="xMidYMid meet">
<metadata>
Created by potrace 1.15, written by Peter Selinger 2001-2017
</metadata>
<g id="switcherIcon" transform="translate(0.000000,1280.000000) scale(0.100000,-0.100000)"
fill="none" stroke="black" stroke-width="3">
<path d="M5345 10839 c-1146 -83 -2169 -683 -2799 -1644 -261 -398 -452 -871
-532 -1319 -115 -644 -71 -1167 148 -1755 251 -678 733 -1413 1346 -2055 63
-65 129 -143 149 -173 80 -126 128 -287 198 -663 76 -416 119 -568 216 -765
91 -187 236 -362 379 -458 l50 -34 -25 -11 c-14 -7 -33 -12 -41 -12 -8 0 -26
-11 -39 -25 -24 -23 -25 -30 -25 -148 0 -115 1 -125 22 -144 28 -24 71 -41
118 -46 l35 -3 -32 -8 c-67 -17 -73 -32 -73 -179 l0 -133 33 -31 c17 -17 46
-38 62 -46 21 -12 25 -16 12 -17 -10 0 -32 -13 -48 -29 -41 -41 -40 -90 2
-125 17 -14 40 -26 52 -26 19 -1 18 -3 -8 -17 -92 -48 -103 -128 -24 -169 l31
-16 -30 -18 c-79 -49 -67 -138 23 -167 l30 -10 -36 -16 c-70 -29 -92 -102 -44
-147 32 -30 32 -52 0 -84 -33 -33 -34 -84 -2 -113 36 -34 63 -43 121 -43 36 0
67 -7 89 -19 89 -50 310 -111 462 -127 33 -3 73 -12 89 -20 42 -20 551 -21
563 0 5 8 43 18 92 25 258 38 466 121 559 225 24 27 52 46 79 54 63 19 97 52
97 95 0 42 -23 72 -70 89 l-32 11 40 20 c87 43 80 141 -12 175 -24 9 -24 9 14
27 75 36 80 113 10 160 l-30 20 30 20 c70 46 67 122 -7 155 l-39 18 37 18 c50
23 73 70 54 110 -8 15 -29 39 -48 51 -19 13 -29 23 -23 23 20 0 70 50 77 77 3
15 15 33 26 41 16 11 19 25 19 88 0 69 2 75 23 83 53 20 57 33 57 167 0 119
-1 126 -25 149 -13 14 -33 25 -45 25 -15 0 10 30 98 117 129 128 193 215 271
369 85 171 137 341 226 746 77 349 135 515 229 655 50 74 101 126 250 253 192
163 451 474 676 810 249 371 496 881 619 1275 167 537 208 1001 135 1530 -126
917 -603 1754 -1332 2342 -706 569 -1626 858 -2527 792z " stroke="#dadaa" stroke-width="1"/>
</g>
</svg>
